:SAMPLES-PER-SECOND 30
:FULLY-SPECIFIED
:DEGREES
123
root  78.8767 37.6335 2.5243 25.3312 -83.1324 -27.4303
RightUpLeg  -18.7199 -7.36391 7.22172
RightLeg  22.7131 -2.90156 -1.30667
RightFoot  -4.38818 0.260539 -4.75241
RightToes  -2.9104e-010 0 -3.6325e-017
Spine  3.88047 -1.48779 8.07222
Spine1  4.30245 -1.25768 1.75359
HEad  -1.64736 -20.2166 -10.2191
LeftShoulder1  -0.672566 5.12395 -35.3158
LeftArm  16.4587 9.51688 -40.6357
LeftForeArm  16.1424 -22.1457 -4.38364
LeftHand  0.0922956 9.38086 3.84685
RightShoulder  -1.18452 -6.5206 32.7069
RightArm  10.9612 -4.66464 41.7479
RightForeArm  17.197 7.80509 5.81226
RightHand  -0.118283 4.13328 -1.71013
LeftUpLeg  8.06976 14.9279 6.47437
LeftLeg  35.9204 0.714774 0.982005
LeftFoot  -9.38636 0.290179 -16.0538
LeftToes  -3.37426e-010 -1.91496e-010 5.23909e-011
124
root  78.0968 37.679 2.56994 29.4805 -83.3313 -31.9785
RightUpLeg  -17.2769 -7.56687 7.41135
RightLeg  23.4247 -2.26835 -0.924636
RightFoot  -5.72015 0.180059 -4.4802
RightToes  -2.9104e-010 0 -3.6325e-017
Spine  4.78317 -0.936757 10.0693
Spine1  3.61316 -0.267549 1.00532
HEad  -0.502307 -21.3067 -9.7753
LeftShoulder1  -0.73692 5.27083 -35.4989
LeftArm  17.3814 10.0643 -40.0274
LeftForeArm  16.7788 -23.3276 -4.18616
LeftHand  0.00440267 7.14621 2.79957
RightShoulder  -1.17813 -6.52671 32.4228
RightArm  11.9046 -2.82838 41.885
RightForeArm  14.1518 10.377 5.88335
RightHand  -0.154077 4.9718 -2.02246
LeftUpLeg  2.581 13.4813 6.80158
LeftLeg  46.0087 1.52103 2.07543
LeftFoot  1.82382 1.19792 -10.8608
LeftToes  -3.37426e-010 -1.91496e-010 5.23909e-011
125
root  77.3527 37.6651 2.57552 29.7487 -82.9219 -33.2454
RightUpLeg  -14.9985 -7.54544 7.51506
RightLeg  23.7039 -3.08972 -1.05186
RightFoot  -7.56184 0.109243 -4.83245
RightToes  -2.9104e-010 0 -3.6325e-017
Spine  5.7279 -0.993016 11.4614
Spine1  3.82989 0.164617 0.523979
HEad  0.284252 -22.0419 -9.06857
LeftShoulder1  -0.67948 5.14587 -35.1917
LeftArm  14.9652 11.3998 -39.8483
LeftForeArm  17.2903 -24.6323 -4.35115
LeftHand  0.0119701 7.72834 2.50912
RightShoulder  -1.15385 -6.45857 32.4846
RightArm  14.7004 0.116766 42.1047
RightForeArm  11.5564 12.9027 6.04208
RightHand  -0.204346 4.84362 -2.63227
LeftUpLeg  -2.11858 11.5069 7.18416
LeftLeg  54.106 0.822384 1.65515
LeftFoot  10.4557 0.704457 -3.74774
LeftToes  -3.37426e-010 -1.91496e-010 5.23909e-011
126
root  76.6016 37.7629 2.61094 30.1898 -84.0964 -34.0143
RightUpLeg  -13.3516 -6.59459 6.88891
RightLeg  23.8368 -3.0312 -1.02397
RightFoot  -8.68972 0.0491428 -4.65953
RightToes  -2.9104e-010 0 -3.6325e-017
Spine  5.21548 -0.43105 12.0447
Spine1  5.37985 1.03852 -0.195657
HEad  0.123859 -22.7651 -8.60135
LeftShoulder1  -0.661574 5.10388 -35.1492
LeftArm  12.7741 12.3595 -39.7031
LeftForeArm  16.778 -25.59 -4.59578
LeftHand  0.0201449 7.50023 3.06978
RightShoulder  -1.07304 -6.29666 31.8599
RightArm  16.9433 3.82005 43.2918
RightForeArm  10.9029 14.5701 5.95487
RightHand  -0.224882 3.91777 -3.07072
LeftUpLeg  -6.55191 10.3519 6.29405
LeftLeg  59.4811 -0.558013 -0.464207
LeftFoot  9.85595 -0.143077 0.390702
LeftToes  -3.37426e-010 -1.91496e-010 5.23909e-011
127
root  75.8183 37.9337 2.67556 27.9111 -85.2627 -31.9895
RightUpLeg  -11.266 -6.0947 5.93836
RightLeg  23.0606 -2.60721 -0.786534
RightFoot  -9.553 0.00593316 -4.49287
RightToes  -2.9104e-010 0 -3.6325e-017
Spine  5.57823 -0.171844 13.0543
Spine1  5.0671 1.83939 -2.23748
HEad  0.719465 -23.1507 -8.1833
LeftShoulder1  -0.607467 4.99433 -34.5959
LeftArm  11.5306 13.9391 -39.2204
LeftForeArm  16.1527 -26.0076 -4.72159
LeftHand  -0.00942312 6.67463 2.21627
RightShoulder  -1.02195 -6.18832 31.4813
RightArm  18.0475 6.63249 44.604
RightForeArm  11.094 15.6692 5.72176
RightHand  -0.182597 4.61328 -2.40489
LeftUpLeg  -10.5443 8.55468 5.23336
LeftLeg  62.0711 -1.25626 -1.96545
LeftFoot  6.08007 0.460616 -3.25865
LeftToes  -3.37426e-010 -1.91496e-010 5.23909e-011
128
root  74.9863 38.1094 2.72443 23.3648 -86.784 -27.662
RightUpLeg  -9.13546 -6.03002 4.79058
RightLeg  22.2632 -1.37581 -0.388688
RightFoot  -10.5247 -0.0405993 -4.32466
RightToes  -2.9104e-010 0 -3.6325e-017
Spine  5.39589 0.14307 13.869
Spine1  5.45004 2.65294 -4.41356
HEad  1.07009 -23.2833 -7.97081
LeftShoulder1  -0.635734 5.0897 -33.9153
LeftArm  10.7557 15.2495 -39.0574
LeftForeArm  17.4452 -26.1735 -4.68988
LeftHand  -0.019476 6.35384 1.70991
RightShoulder  -0.918596 -5.97619 30.568
RightArm  17.9709 8.6888 46.6629
RightForeArm  10.5723 16.95 5.27184
RightHand  -0.185878 4.56947 -2.45455
LeftUpLeg  -13.7428 6.98159 3.99603
LeftLeg  61.5348 -1.4287 -2.27328
LeftFoot  3.29385 0.633377 -5.02952
LeftToes  -3.37426e-010 -1.91496e-010 5.23909e-011
129
root  74.178 38.287 2.76409 15.452 -88.4665 -19.7015
RightUpLeg  -7.20264 -6.33929 3.59988
RightLeg  21.1019 0.411953 0.247164
RightFoot  -11.1964 -0.0697782 -4.49075
RightToes  -2.9104e-010 0 -3.6325e-017
Spine  5.32874 0.781367 14.1398
Spine1  5.35077 3.55437 -5.99625
HEad  1.21996 -23.5227 -7.6932
LeftShoulder1  -0.601826 5.01495 -33.6692
LeftArm  10.4169 15.8702 -38.959
LeftForeArm  18.0781 -24.9968 -4.39232
LeftHand  -0.00287262 6.69152 2.40352
RightShoulder  -0.885391 -5.89754 30.3829
RightArm  18.5828 10.3772 47.3892
RightForeArm  8.44079 19.0497 4.80484
RightHand  -0.252128 4.60133 -3.21926
LeftUpLeg  -16.5802 5.47096 2.76114
LeftLeg  58.4656 -1.54083 -2.19717
LeftFoot  1.7535 0.400436 -3.58696
LeftToes  -3.37426e-010 -1.91496e-010 5.23909e-011
130
root  73.4132 38.4169 2.80395 -16.41 -88.7706 12.2502
RightUpLeg  -5.33763 -6.94535 2.63412
RightLeg  19.8632 1.3254 0.613686
RightFoot  -11.9398 -0.103955 -4.44033
RightToes  -2.9104e-010 0 -3.6325e-017
Spine  5.40031 0.805537 14.31
Spine1  5.21187 3.66746 -7.22096
HEad  0.851614 -23.6496 -7.52492
LeftShoulder1  -0.630432 5.09302 -33.5053
LeftArm  10.1927 16.657 -38.8063
LeftForeArm  19.0233 -24.6788 -4.30016
LeftHand  0.0202008 8.66844 2.10501
RightShoulder  -0.858987 -5.85163 29.9779
RightArm  19.2874 11.9454 48.2085
RightForeArm  6.66706 21.2864 4.5891
RightHand  -0.28968 5.28243 -3.45232
LeftUpLeg  -19.0552 2.91966 2.00212
LeftLeg  53.3894 -1.04527 -1.0757
LeftFoot  0.854306 0.243422 -2.3289
LeftToes  -3.37426e-010 -1.91496e-010 5.23909e-011
131
root  72.609 38.489 2.84735 -75.7749 -89.215 71.6735
RightUpLeg  -3.73206 -7.35425 1.7036
RightLeg  19.2644 2.76891 0.936426
RightFoot  -12.8705 -0.147062 -4.50284
RightToes  -2.9104e-010 0 -3.6325e-017
Spine  5.55483 1.12091 14.0205
Spine1  5.15088 3.95539 -7.77496
HEad  0.346018 -23.3802 -7.22533
LeftShoulder1  -0.67178 5.17982 -33.9195
LeftArm  9.37462 16.8233 -38.4402
LeftForeArm  18.7789 -22.2798 -4.11352
LeftHand  -0.0231186 7.38993 0.718698
RightShoulder  -0.866731 -5.88417 29.8044
RightArm  20.5003 13.3646 48.4685
RightForeArm  6.13043 23.4975 4.69941
RightHand  -0.345625 5.71266 -3.93201
LeftUpLeg  -20.41 1.2984 1.50926
LeftLeg  46.2918 -0.48242 -0.107233
LeftFoot  -0.976894 0.271145 -2.95853
LeftToes  -3.37426e-010 -1.91496e-010 5.23909e-011
132
root  71.8044 38.6079 2.84589 -110.125 -88.5212 106.482
RightUpLeg  -2.17181 -7.51469 0.958822
RightLeg  17.8607 3.66114 1.07671
RightFoot  -13.3425 -0.168035 -4.46935
RightToes  -2.9104e-010 0 -3.6325e-017
Spine  5.75428 1.3328 13.04
Spine1  4.3045 3.89247 -7.95324
HEad  0.115805 -22.8241 -6.77868
LeftShoulder1  -0.664371 5.1467 -34.2701
LeftArm  8.57257 17.784 -37.7393
LeftForeArm  18.0928 -20.5519 -4.68946
LeftHand  0.0351087 9.22751 2.52048
RightShoulder  -0.921844 -6.01054 30.1899
RightArm  22.083 14.7071 48.5366
RightForeArm  7.23873 24.7683 4.92369
RightHand  -0.299566 5.24409 -3.58067
LeftUpLeg  -21.1084 0.447718 1.36113
LeftLeg  36.7833 -0.89215 -0.367748
LeftFoot  -1.65744 0.405442 -4.65602
LeftToes  -3.37426e-010 -1.91496e-010 5.23909e-011
133
root  70.9541 38.658 2.83946 -139.071 -87.6644 135.658
RightUpLeg  -0.498123 -7.45371 0.54351
RightLeg  16.7798 4.86407 1.08955
RightFoot  -14.1225 -0.200724 -4.33011
RightToes  -2.9104e-010 0 -3.6325e-017
Spine  5.74263 1.53864 12.8066
Spine1  4.07756 4.10191 -8.86554
HEad  -0.33644 -21.2928 -4.87591
LeftShoulder1  -0.697797 5.25081 -33.8314
LeftArm  5.89599 18.4663 -37.9568
LeftForeArm  20.3258 -18.3386 -5.54513
LeftHand  0.0184069 9.76431 1.83849
RightShoulder  -0.894619 -5.94059 30.1823
RightArm  23.2572 15.1345 49.2216
RightForeArm  7.15192 25.5728 5.10967
RightHand  -0.314236 5.69764 -3.61358
LeftUpLeg  -20.7412 0.254767 1.36922
LeftLeg  26.2328 -1.39921 -0.415557
LeftFoot  -0.881222 0.41814 -4.51048
LeftToes  -3.37426e-010 -1.91496e-010 5.23909e-011
